<svg width="107" height="127" viewBox="0 0 107 127" fill="none" xmlns="http://www.w3.org/2000/svg">
<path d="M9.05297 3.03042e-05L11.2357 11.3389L0.32464 7.55977L9.05297 3.03042e-05ZM106.293 126.337C105.647 126.229 104.994 126.115 104.333 125.995L104.689 124.027C105.341 124.145 105.986 124.258 106.623 124.364L106.293 126.337ZM100.366 125.224C99.0718 124.955 97.7549 124.665 96.4184 124.353L96.8726 122.405C98.1935 122.713 99.4946 123 100.773 123.265L100.366 125.224ZM92.4896 123.388C91.2069 123.057 89.9095 122.708 88.5998 122.338L89.1425 120.413C90.4378 120.779 91.7207 121.125 92.9889 121.452L92.4896 123.388ZM84.7373 121.203C83.4645 120.813 82.1826 120.406 80.8935 119.98L81.521 118.081C82.7959 118.502 84.0638 118.905 85.3226 119.29L84.7373 121.203ZM77.0719 118.67C75.8126 118.222 74.5486 117.757 73.2817 117.275L73.9937 115.406C75.2463 115.883 76.4962 116.343 77.7415 116.785L77.0719 118.67ZM69.5348 115.798C68.2956 115.293 67.0553 114.772 65.8158 114.232L66.6137 112.398C67.8385 112.931 69.0643 113.447 70.2894 113.946L69.5348 115.798ZM62.1308 112.576C60.9148 112.012 59.7012 111.43 58.4917 110.832L59.3788 109.039C60.5731 109.63 61.7716 110.204 62.9728 110.762L62.1308 112.576ZM54.8982 108.995C53.7096 108.368 52.5266 107.723 51.3509 107.062L52.3319 105.319C53.4915 105.971 54.6586 106.607 55.8316 107.226L54.8982 108.995ZM47.8576 105.03C46.7042 104.337 45.5597 103.627 44.4255 102.899L45.5058 101.216C46.6229 101.933 47.7506 102.633 48.8875 103.316L47.8576 105.03ZM41.0572 100.663C39.946 99.9004 38.8468 99.1195 37.7613 98.3206L38.9467 96.7098C40.0143 97.4955 41.0957 98.2637 42.1893 99.0147L41.0572 100.663ZM34.5444 95.8672C33.4852 95.0298 32.4414 94.1741 31.4145 93.2997L32.7111 91.7769C33.719 92.6352 34.7441 93.4755 35.7847 94.2982L34.5444 95.8672ZM28.3822 90.6167C27.3878 89.7019 26.4121 88.7682 25.4568 87.8152L26.8693 86.3993C27.805 87.3327 28.7612 88.2478 29.7362 89.1448L28.3822 90.6167ZM22.6475 84.8917C21.7317 83.8967 20.8381 82.882 19.9684 81.8476L21.4992 80.5605C22.3492 81.5715 23.223 82.5637 24.1191 83.5373L22.6475 84.8917ZM17.4306 78.6821C16.6097 77.6069 15.8144 76.5117 15.0465 75.3961L16.6939 74.2621C17.4428 75.35 18.2188 76.4188 19.0202 77.4685L17.4306 78.6821ZM12.8301 71.9944C12.1215 70.8429 11.4416 69.6712 10.7923 68.479L12.5487 67.5224C13.1808 68.6831 13.8429 69.8242 14.5334 70.9461L12.8301 71.9944ZM8.94455 64.8551C8.36521 63.6376 7.81727 62.4 7.30235 61.1421L9.15329 60.3844C9.65399 61.6076 10.1869 62.8113 10.7505 63.9958L8.94455 64.8551ZM5.869 57.3382C5.42849 56.061 5.02151 54.7639 4.64958 53.447L6.5743 52.9034C6.93585 54.1836 7.33148 55.4445 7.75971 56.6861L5.869 57.3382ZM3.65822 49.5161C3.36665 48.2055 3.10925 46.8763 2.88736 45.5284L4.86081 45.2035C5.07665 46.5148 5.32699 47.8075 5.61049 49.0817L3.65822 49.5161ZM2.33541 41.4816C2.19145 40.1562 2.08125 38.8135 2.00598 37.4535L4.00292 37.343C4.07625 38.6679 4.18359 39.9755 4.32372 41.2657L2.33541 41.4816ZM1.88635 33.3946C1.88103 32.0524 1.90915 30.6941 1.97173 29.3196L3.96965 29.4106C3.90857 30.7525 3.88115 32.0778 3.88633 33.3867L1.88635 33.3946ZM2.24976 25.2985C2.37336 23.9615 2.52904 22.6098 2.71764 21.2433L4.69886 21.5167C4.5143 22.854 4.36207 24.1759 4.24126 25.4826L2.24976 25.2985ZM3.35227 17.2687C3.59016 15.955 3.85799 14.628 4.15652 13.2877L6.10869 13.7225C5.81588 15.0372 5.55332 16.338 5.32026 17.6251L3.35227 17.2687ZM5.10922 9.3624C5.4468 8.07616 5.81221 6.77806 6.20607 5.46803L8.12138 6.04385C7.7342 7.33167 7.37521 8.60707 7.04369 9.87012L5.10922 9.3624Z" fill="#23212B"/>
</svg>
