<svg width="25" height="30" viewBox="0 0 25 30" fill="none" xmlns="http://www.w3.org/2000/svg">
<path fill-rule="evenodd" clip-rule="evenodd" d="M8.68825 0.849155C5.16414 1.66874 4.93491 1.72973 4.80877 1.88116L4.67467 2.04214L4.69467 5.59782C4.71386 9.00929 4.72 9.18324 4.8454 9.88659C5.44244 13.235 7.25547 16.0714 9.99143 17.9373C10.5232 18.3 11.7627 18.9481 12.2752 19.1314C12.5634 19.2345 12.5797 19.2343 12.8999 19.1219C13.0808 19.0585 13.5483 18.8451 13.9387 18.6477C16.9074 17.147 19.1431 14.3716 20.0408 11.0726C20.4193 9.68167 20.4289 9.55441 20.4542 5.61917L20.4773 2.02625L20.3176 1.86374C20.1697 1.71325 19.8884 1.6393 16.5089 0.862057C14.502 0.400509 12.764 0.0127964 12.6468 0.000480645C12.5104 -0.0138291 11.0843 0.291895 8.68825 0.849155ZM15.9266 1.93253L19.3059 2.71394L19.3209 5.61114C19.3375 8.8201 19.3048 9.31443 18.9937 10.5606C18.6739 11.841 18.131 13.0388 17.3585 14.1678C16.8637 14.8911 15.6006 16.1975 14.9043 16.7064C14.3598 17.1043 12.7588 17.9798 12.5756 17.9798C12.3921 17.9798 10.7909 17.1039 10.247 16.7059C9.54445 16.1919 8.28131 14.8863 7.79139 14.1678C7.01778 13.0331 6.47674 11.8386 6.15761 10.5606C5.84643 9.31437 5.81377 8.82016 5.83035 5.61002L5.84535 2.71171L9.19629 1.93617C11.0393 1.50963 12.5472 1.15852 12.5472 1.15593C12.5472 1.1533 14.0679 1.50277 15.9266 1.93253ZM9.71592 2.84015C7.21827 3.42644 7.04658 3.47488 6.91873 3.62935C6.61504 3.99613 6.8646 4.55128 7.33186 4.5484C7.45142 4.5477 8.67377 4.28625 10.0482 3.96745L12.5472 3.38779L14.8946 3.92411L17.242 4.46043L17.2176 6.71897C17.1953 8.78262 17.1823 9.02818 17.067 9.56403C16.8823 10.4223 16.6822 11.0064 16.3193 11.7472C15.5681 13.28 14.4393 14.5103 12.9639 15.404L12.5853 15.6332L12.2426 15.4332C9.77294 13.9918 8.14688 11.3655 7.94031 8.48446C7.90527 7.99623 7.88284 7.91196 7.74499 7.75273C7.61794 7.60582 7.5453 7.57269 7.35043 7.57269C7.15063 7.57269 7.08349 7.60524 6.93934 7.77179L6.76703 7.97096L6.80497 8.53291C7.03096 11.8831 8.98956 14.9914 11.8561 16.5492C12.1738 16.7218 12.4946 16.8636 12.569 16.8643C12.7179 16.8656 13.4485 16.498 13.9387 16.175C15.7991 14.9495 17.3015 12.9136 17.9397 10.7531C18.309 9.50263 18.3255 9.33079 18.3528 6.4472L18.3778 3.7996L18.2171 3.61956C18.0619 3.44567 17.964 3.41828 15.3627 2.82167C13.8811 2.48187 12.6032 2.20653 12.5229 2.2097C12.4426 2.21292 11.1794 2.49665 9.71592 2.84015ZM6.94849 5.65952C6.72227 5.89311 6.72176 6.17848 6.94707 6.43881C7.08128 6.59399 7.15398 6.62906 7.3414 6.62906C7.62044 6.62906 7.84342 6.43958 7.89431 6.15931C7.9941 5.61008 7.33413 5.26131 6.94849 5.65952ZM13.3721 7.83718C12.3351 8.80661 11.4647 9.59171 11.4378 9.58192C11.4109 9.57206 11.143 9.26581 10.8425 8.90127C10.542 8.53678 10.2295 8.2124 10.1481 8.18044C9.93197 8.09558 9.7028 8.16912 9.53264 8.3779C9.27666 8.69201 9.34725 8.89083 10.0002 9.69469C10.8772 10.7744 11.1607 11.0596 11.3573 11.0593C11.4495 11.0592 11.6016 11.0091 11.6953 10.9479C12.0596 10.7102 15.9564 7.00675 16.0285 6.82964C16.085 6.69094 16.0873 6.60302 16.0384 6.45002C15.9555 6.19074 15.7871 6.07456 15.4942 6.07456C15.2634 6.07456 15.2095 6.11937 13.3721 7.83718ZM1.75606 11.5544C1.31277 11.746 0.880781 12.2002 0.720674 12.643C0.626904 12.9022 0.539495 13.6689 0.275623 16.5474C-0.0921294 20.5583 -0.0921294 20.5386 0.277156 21.1646C0.375981 21.3322 1.53507 22.917 2.85295 24.6865L5.24899 27.9037V28.7536V29.6036L5.4421 29.8029C5.64872 30.0163 5.8207 30.0515 6.07412 29.9323C6.34435 29.8051 6.38491 29.6279 6.38491 28.5732C6.38491 28.042 6.36809 27.5621 6.34748 27.5068C6.32692 27.4514 5.1968 25.912 3.83614 24.0858C2.47549 22.2597 1.29925 20.6373 1.22224 20.4805L1.08223 20.1955L1.40483 16.6805C1.63616 14.1595 1.75231 13.1158 1.81547 12.9896C2.0878 12.4458 2.85358 12.4654 3.16698 13.0242C3.21349 13.1072 3.24104 14.0426 3.26114 16.2204L3.28954 19.2994L3.45993 19.6374C3.73243 20.1779 5.90578 23.0572 6.10593 23.1428C6.46482 23.2964 6.86744 22.9954 6.85614 22.5822C6.85154 22.4155 6.73783 22.2231 6.26268 21.5777C5.73488 20.8608 5.67496 20.7544 5.67496 20.5353C5.67496 20.2264 5.82331 19.9896 6.08843 19.8752C6.41007 19.7364 6.66451 19.8437 6.99523 20.2576C7.6895 21.1266 9.32902 23.4149 9.49197 23.7424C9.852 24.466 9.86404 24.5693 9.90101 27.2591C9.93356 29.6277 9.93838 29.7099 10.0516 29.8268C10.2182 29.9987 10.5484 30.0425 10.7334 29.9173C11.046 29.7058 11.056 29.609 11.028 27.0431C11.0044 24.8773 10.993 24.6584 10.8809 24.2257C10.6582 23.3661 10.3436 22.8307 8.969 20.9708C8.26575 20.0192 7.62027 19.1789 7.53456 19.1034C7.00352 18.635 6.19646 18.5195 5.57829 18.8234C5.3853 18.9183 5.15272 19.0994 5.0029 19.2716L4.75135 19.5604L4.5884 19.3177L4.42546 19.075L4.39473 16.0203C4.36094 12.6615 4.36957 12.744 3.99688 12.2081C3.64968 11.7089 3.18481 11.4582 2.5512 11.4285C2.16493 11.4103 2.04577 11.4292 1.75606 11.5544ZM21.8096 11.5568C21.4125 11.7254 21.0318 12.087 20.8204 12.4964L20.669 12.7896L20.6406 15.8685C20.6107 19.1151 20.6206 18.9952 20.3474 19.3981L20.2406 19.5556L19.9791 19.2669C19.5972 18.8453 19.2013 18.6633 18.6599 18.6604C18.3042 18.6585 18.171 18.686 17.9144 18.8141C17.7426 18.8999 17.5346 19.031 17.4521 19.1054C17.3086 19.2348 15.1306 22.1611 14.7406 22.7485C14.4702 23.1557 14.2369 23.7176 14.1083 24.2711C14.0061 24.7111 13.9963 24.9681 13.9959 27.1987L13.9955 29.6439L14.1234 29.7974C14.2085 29.8996 14.3293 29.9618 14.4845 29.9832C14.6871 30.0113 14.7431 29.9922 14.9104 29.8379L15.103 29.6603L15.1329 27.1189C15.1656 24.3344 15.1576 24.4028 15.5366 23.6685C15.6282 23.4911 16.2582 22.5938 16.9365 21.6745C18.3242 19.7943 18.4158 19.7072 18.845 19.8617C19.2361 20.0024 19.4447 20.4714 19.2682 20.8134C19.2319 20.8838 18.9635 21.2657 18.6719 21.6619C18.2068 22.2937 18.1416 22.4111 18.1416 22.6175C18.1416 23.0082 18.5028 23.2785 18.8633 23.1577C19.0554 23.0933 21.3097 20.1185 21.5285 19.6407C21.605 19.4737 21.692 19.1834 21.7217 18.9956C21.7515 18.8078 21.7764 17.4139 21.777 15.8979C21.7779 13.8113 21.7954 13.1063 21.8492 12.9966C21.9539 12.783 22.2721 12.5843 22.5091 12.5846C22.7445 12.5848 23.036 12.7492 23.167 12.9557C23.2809 13.1351 23.9212 19.9331 23.857 20.2805C23.8261 20.447 23.2083 21.3173 21.2643 23.9326C19.8606 25.821 18.686 27.4164 18.6541 27.4781C18.621 27.542 18.596 28.023 18.596 28.5968V29.6036L18.7891 29.8029C18.9957 30.0163 19.1677 30.0515 19.4211 29.9323C19.6822 29.8095 19.7319 29.6172 19.732 28.7297L19.7321 27.9204L22.1796 24.6362C23.7237 22.5641 24.6908 21.2146 24.8 20.9796C24.9216 20.7181 24.9806 20.4912 24.9984 20.2172C25.0351 19.6537 24.4166 13.0423 24.2954 12.7016C23.9229 11.655 22.7984 11.1371 21.8096 11.5568Z" fill="#23212B"/>
</svg>
