<svg width="370" height="150" viewBox="0 0 370 150" fill="none" xmlns="http://www.w3.org/2000/svg">
<path d="M203.835 1.34547C199.275 0.486332 194.649 0.0567629 189.99 0.0567629C154.038 0.0567629 124.001 25.3683 116.732 59.139C116.467 60.2955 115.476 61.0886 114.287 61.0886H77.8063C76.4184 61.0886 75.2949 62.212 75.2949 63.5668V86.2348C75.2949 87.6227 76.4184 88.7462 77.8063 88.7462H109.826C111.213 88.7462 112.337 89.8697 112.337 91.2575V102.492C112.337 103.682 111.907 104.838 111.114 105.764C94.0968 125.524 64.2914 127.771 44.4982 110.753C24.705 93.7358 22.491 63.9303 39.5086 44.1371C53.453 27.9457 76.4845 23.1213 95.749 32.3735C96.9055 32.9683 98.3264 32.5388 99.0203 31.4153L110.652 11.8534C111.346 10.6638 110.982 9.14379 109.793 8.41683C109.76 8.38379 109.727 8.38379 109.66 8.35074C99.0534 2.86548 87.2568 -0.00932457 75.2949 0.0237192C33.9242 0.0567629 0.384766 33.6292 0.384766 75C0.384766 116.371 33.9242 149.943 75.328 149.943C96.476 149.976 116.6 141.054 130.808 125.392C131.734 124.367 133.32 124.301 134.344 125.226C134.41 125.293 134.476 125.326 134.509 125.392C152.022 144.656 178.259 153.446 203.835 148.688C169.073 142.211 142.737 114.322 142.737 77.6765C142.737 51.572 163.885 27.7805 189.99 27.7805C216.094 27.7805 237.242 48.9285 237.242 75.033C237.242 95.8175 223.694 114.124 203.835 120.237C208.329 121.625 212.988 122.319 217.68 122.286C243.785 122.286 264.933 98.4941 264.933 72.3895C264.9 35.711 238.597 7.85509 203.835 1.34547ZM367.104 120.138H317.968C316.58 120.138 315.457 119.014 315.457 117.626V4.71593C315.457 3.32809 314.333 2.20461 312.979 2.20461H290.311C288.923 2.20461 287.799 3.32809 287.799 4.71593V142.806C287.799 145.581 290.046 147.795 292.789 147.795H367.104C368.492 147.795 369.616 146.672 369.616 145.284V122.616C369.616 121.261 368.492 120.138 367.104 120.138Z" fill="#FF7020"/>
</svg>
